<svg xmlns="http://www.w3.org/2000/svg" viewBox="0 0 32 32">
  <defs>
    <linearGradient id="bg" x1="0%" y1="0%" x2="100%" y2="100%">
      <stop offset="0%" style="stop-color:#3a2030"/>
      <stop offset="100%" style="stop-color:#1a0f18"/>
    </linearGradient>
  </defs>
  <rect width="32" height="32" rx="7" fill="url(#bg)"/>
  <!-- Left mine -->
  <circle cx="10" cy="16" r="4" fill="#f43f5e"/>
  <line x1="10" y1="10.5" x2="10" y2="12.5" stroke="#f43f5e" stroke-width="1.2" stroke-linecap="round"/>
  <line x1="10" y1="19.5" x2="10" y2="21.5" stroke="#f43f5e" stroke-width="1.2" stroke-linecap="round"/>
  <line x1="4.5" y1="16" x2="6.5" y2="16" stroke="#f43f5e" stroke-width="1.2" stroke-linecap="round"/>
  <line x1="13.5" y1="16" x2="15.5" y2="16" stroke="#f43f5e" stroke-width="1.2" stroke-linecap="round"/>
  <line x1="6" y1="12" x2="7.5" y2="13.5" stroke="#f43f5e" stroke-width="1.2" stroke-linecap="round"/>
  <line x1="12.5" y1="18.5" x2="14" y2="20" stroke="#f43f5e" stroke-width="1.2" stroke-linecap="round"/>
  <line x1="6" y1="20" x2="7.5" y2="18.5" stroke="#f43f5e" stroke-width="1.2" stroke-linecap="round"/>
  <line x1="12.5" y1="13.5" x2="14" y2="12" stroke="#f43f5e" stroke-width="1.2" stroke-linecap="round"/>
  <!-- VS -->
  <text x="16" y="18.5" text-anchor="middle" font-family="Arial Black,sans-serif" font-size="5.5" font-weight="900" fill="#f9a8d4" letter-spacing="-0.5">VS</text>
  <!-- Right mine -->
  <circle cx="26" cy="16" r="4" fill="#f472b6"/>
  <line x1="26" y1="10.5" x2="26" y2="12.5" stroke="#f472b6" stroke-width="1.2" stroke-linecap="round"/>
  <line x1="26" y1="19.5" x2="26" y2="21.5" stroke="#f472b6" stroke-width="1.2" stroke-linecap="round"/>
  <line x1="20.5" y1="16" x2="22.5" y2="16" stroke="#f472b6" stroke-width="1.2" stroke-linecap="round"/>
  <line x1="29.5" y1="16" x2="31.5" y2="16" stroke="#f472b6" stroke-width="1.2" stroke-linecap="round"/>
  <line x1="22" y1="12" x2="23.5" y2="13.5" stroke="#f472b6" stroke-width="1.2" stroke-linecap="round"/>
  <line x1="28.5" y1="18.5" x2="30" y2="20" stroke="#f472b6" stroke-width="1.2" stroke-linecap="round"/>
  <line x1="22" y1="20" x2="23.5" y2="18.5" stroke="#f472b6" stroke-width="1.2" stroke-linecap="round"/>
  <line x1="28.5" y1="13.5" x2="30" y2="12" stroke="#f472b6" stroke-width="1.2" stroke-linecap="round"/>
</svg>
